<!DOCTYPE svg PUBLIC "-//W3C//DTD SVG 1.1//EN" "http://www.w3.org/Graphics/SVG/1.1/DTD/svg11.dtd">
<!-- Uploaded to: SVG Repo, www.svgrepo.com, Transformed by: SVG Repo Mixer Tools -->
<svg fill="#ddd0d1" height="800px" width="800px" version="1.1" id="Icons" xmlns="http://www.w3.org/2000/svg" xmlns:xlink="http://www.w3.org/1999/xlink" viewBox="0 0 32 32" xml:space="preserve" stroke="#ddd0d1">
<g id="SVGRepo_bgCarrier" stroke-width="0"/>
<g id="SVGRepo_tracerCarrier" stroke-linecap="round" stroke-linejoin="round"/>
<g id="SVGRepo_iconCarrier"> <g> <path d="M12.5,28c-1,0-1.8-0.4-2.5-1c-1.4-1.4-1.4-3.6,0-5l5.7-5.8c0.1-0.1,0.1-0.2,0-0.3L10,10.1c-1.4-1.4-1.4-3.6,0-5 c0.7-0.7,1.6-1,2.5-1c0,0,0,0,0,0c1,0,1.8,0.4,2.5,1l9.3,9.4c0.9,0.9,0.9,2.3,0,3.1l-9.3,9.4C14.4,27.6,13.5,28,12.5,28 C12.5,28,12.5,28,12.5,28z"/> </g> </g>
</svg>